<svg width="167" height="122" viewBox="0 0 167 122" fill="none" xmlns="http://www.w3.org/2000/svg">
    <circle cx="111.145" cy="55.9212" r="55.5726" fill="#FF2815" />
    <path
        d="M57.2398 111.494H54.4976C45.4033 111.494 36.5007 114.109 28.8507 119.026C16.8013 126.772 0.919326 118.526 0.490923 104.208C0.215177 94.9922 0 85.5939 0 78.706C0 73.2915 0.132966 64.6858 0.323795 55.1232C0.93245 24.6232 26.3396 0.348633 56.8457 0.348633C87.5376 0.348633 112.812 25.2293 112.812 55.9212C112.812 86.6131 87.9317 111.494 57.2398 111.494Z"
        fill="#3C38FF" />
    <path
        d="M84.1923 104.532C67.123 95.0474 55.5724 76.8332 55.5724 55.9213C55.5724 35.0704 67.0557 16.9015 84.0431 7.39392C101.147 16.9015 112.812 35.0704 112.812 55.9213C112.812 76.8332 101.262 95.0474 84.1923 104.532Z"
        fill="#FF7DFF" />
</svg>