<svg id="图层_1" data-name="图层 1" xmlns="http://www.w3.org/2000/svg" viewBox="0 0 71.69 52.76"><defs><style>.cls-1{fill:#4d6bfe;}</style></defs><path id="path" class="cls-1" d="M467.27,281.58c-.76-.37-1.08.34-1.53.7a4,4,0,0,0-.41.41,5.1,5.1,0,0,1-4.1,1.87,8,8,0,0,0-6.46,2.53,5.85,5.85,0,0,0-3.73-4.62,6.5,6.5,0,0,1-2.85-1.94,8.06,8.06,0,0,1-.91-2.32c-.16-.47-.33-1-.87-1s-.83.4-1.07.82a11,11,0,0,0-1.26,5.5,11.85,11.85,0,0,0,5.49,10.13.76.76,0,0,1,.39,1c-.25.84-.54,1.65-.8,2.49-.16.53-.41.65-1,.41A16.45,16.45,0,0,1,443,294c-2.55-2.47-4.87-5.2-7.75-7.34-.68-.5-1.36-1-2.06-1.41-2.94-2.86.39-5.21,1.16-5.48s.28-1.29-2.33-1.28-5,.88-8,2a9.4,9.4,0,0,1-1.4.41,28.66,28.66,0,0,0-8.61-.3,18.52,18.52,0,0,0-13.43,7.83c-4,5.46-4.91,11.67-3.76,18.14a27.7,27.7,0,0,0,10,16.89,26.8,26.8,0,0,0,19.23,6.39c4.43-.25,9.36-.85,14.92-5.55a14.18,14.18,0,0,0,5.32,1.18,17.24,17.24,0,0,0,5.09-.38c2.2-.47,2.05-2.5,1.25-2.87-6.43-3-5-1.78-6.31-2.77,3.28-3.87,8.21-7.89,10.13-20.92a11.14,11.14,0,0,0,0-2.52c0-.51.11-.71.69-.77a12.35,12.35,0,0,0,4.62-1.41c4.17-2.28,5.85-6,6.25-10.51A1.58,1.58,0,0,0,467.27,281.58ZM430.93,322c-6.24-4.9-9.27-6.52-10.52-6.45s-1,1.41-.7,2.28a8.49,8.49,0,0,0,1.11,2.21,1.14,1.14,0,0,1-.34,1.8c-2,1.24-5.5-.42-5.67-.5a26.13,26.13,0,0,1-9.86-9.88A30.33,30.33,0,0,1,401.07,298c-.05-1.15.28-1.56,1.43-1.77a14,14,0,0,1,4.57-.11,28.58,28.58,0,0,1,16.33,8.28,55.2,55.2,0,0,1,6.58,8.64,41.16,41.16,0,0,0,7.41,8.7,23.37,23.37,0,0,0,2.66,2C437.65,324.06,433.66,324.12,430.93,322Zm3-19.24a.9.9,0,0,1,.92-.91,1,1,0,0,1,.31.05.79.79,0,0,1,.34.23.86.86,0,0,1,.26.63.91.91,0,0,1-.92.92A.9.9,0,0,1,433.92,302.72Zm9.28,4.77a5.65,5.65,0,0,1-1.76.48,3.75,3.75,0,0,1-2.38-.76,3.56,3.56,0,0,1-1.65-2.27,4.86,4.86,0,0,1,0-1.75,2,2,0,0,0-.72-2.17,3.06,3.06,0,0,0-2.05-.6,1.59,1.59,0,0,1-.76-.23.75.75,0,0,1-.34-1.07,3.55,3.55,0,0,1,.57-.63,3.91,3.91,0,0,1,3.42.05,9.87,9.87,0,0,1,3,2.34,19.59,19.59,0,0,1,2,2.73,10.9,10.9,0,0,1,1.33,2.53C444.15,306.72,443.89,307.2,443.2,307.49Z" transform="translate(-396.33 -277.16)"/></svg>