<svg id="图层_1" data-name="图层 1" xmlns="http://www.w3.org/2000/svg" viewBox="0 0 248.94 52.76"><defs><style>.cls-1{fill:#4d6bfe;}</style></defs><path id="path" class="cls-1" d="M448.92,296.43h-2.48v-3.85h2.48a5.5,5.5,0,0,0,4.09-1.45,6.32,6.32,0,0,0,1.38-4.33,6.22,6.22,0,0,0-1.38-4.33,6.49,6.49,0,0,0-8.18,0,6.32,6.32,0,0,0-1.38,4.33v15.8H439.1V277.19h4.35v1.62h.8a2.23,2.23,0,0,1,.26-.27,6.51,6.51,0,0,1,4.39-1.35,9.28,9.28,0,0,1,6.83,2.41c1.68,1.78,2.27,4.5,2.27,7.21s-.61,5.43-2.27,7.22S451.47,296.43,448.92,296.43Z" transform="translate(-296.47 -258.01)"/><path id="path-2" data-name="path" class="cls-1" d="M382.66,277.87h2.48v3.85h-2.48a5.5,5.5,0,0,0-4.09,1.45,6.3,6.3,0,0,0-1.38,4.33,6.24,6.24,0,0,0,1.38,4.33,6.49,6.49,0,0,0,8.18,0,6.28,6.28,0,0,0,1.38-4.33V271.68h4.36v25.43h-4.36v-1.62h-.8a3.31,3.31,0,0,1-.26.27,6.53,6.53,0,0,1-4.39,1.35c-2.57,0-5.14-.64-6.82-2.41s-2.28-4.51-2.28-7.22.61-5.42,2.28-7.21S380.11,277.87,382.66,277.87Z" transform="translate(-296.47 -258.01)"/><path id="path-3" data-name="path" class="cls-1" d="M414.33,287.16v1.54h-11.6v-3.08h7.69a5.46,5.46,0,0,0-1.3-2.94,6.79,6.79,0,0,0-8.51,0,7.76,7.76,0,0,0,0,8.95,5.83,5.83,0,0,0,4.25,1.5,5.76,5.76,0,0,0,4.26-1.5c.14-.16.27-.33.4-.5h4.3a8.26,8.26,0,0,1-1.87,3.48c-1.75,1.83-4.43,2.5-7.09,2.5s-5.34-.65-7.08-2.5-2.38-4.66-2.38-7.45.63-5.63,2.38-7.46,4.43-2.5,7.08-2.5,5.34.66,7.09,2.5S414.33,284.36,414.33,287.16Z" transform="translate(-296.47 -258.01)"/><path id="path-4" data-name="path" class="cls-1" d="M436.18,287.16v1.54h-11.6v-3.08h7.7a5.47,5.47,0,0,0-1.31-2.94,6.77,6.77,0,0,0-8.5,0,7.72,7.72,0,0,0,0,8.95,6.77,6.77,0,0,0,8.5,0c.14-.16.27-.33.41-.5h4.29a8.15,8.15,0,0,1-1.87,3.48c-1.74,1.83-4.43,2.5-7.08,2.5s-5.34-.65-7.08-2.5-2.38-4.66-2.38-7.45.62-5.63,2.38-7.46,4.42-2.5,7.08-2.5,5.34.66,7.08,2.5S436.18,284.36,436.18,287.16Z" transform="translate(-296.47 -258.01)"/><path id="path-5" data-name="path" class="cls-1" d="M470.41,297.11c2.66,0,5.34-.38,7.08-1.48a5,5,0,0,0,2.38-4.4,4.92,4.92,0,0,0-2.38-4.4c-1.74-1.08-4.42-1.48-7.08-1.48a6.12,6.12,0,0,1-2.92-.57,1.87,1.87,0,0,1-1-1.7,1.85,1.85,0,0,1,1-1.7,6.42,6.42,0,0,1,3-.57,6.55,6.55,0,0,1,3,.57,1.88,1.88,0,0,1,1,1.7H479a5.07,5.07,0,0,0-2.15-4.4,14.62,14.62,0,0,0-12.82,0,5.58,5.58,0,0,0,0,8.8,11.83,11.83,0,0,0,6.41,1.48,8.46,8.46,0,0,1,3.45.57,1.85,1.85,0,0,1,0,3.4,10,10,0,0,1-6.67,0,1.86,1.86,0,0,1-1.12-1.7H461a4.94,4.94,0,0,0,2.38,4.4A14.18,14.18,0,0,0,470.41,297.11Z" transform="translate(-296.47 -258.01)"/><path id="path-6" data-name="path" class="cls-1" d="M501.72,287.16v1.54H490.13v-3.08h7.69a5.46,5.46,0,0,0-1.3-2.94,6.79,6.79,0,0,0-8.51,0,7.76,7.76,0,0,0,0,8.95,5.83,5.83,0,0,0,4.25,1.5,5.76,5.76,0,0,0,4.26-1.5c.14-.16.27-.33.4-.5h4.3a8.26,8.26,0,0,1-1.87,3.48c-1.75,1.83-4.43,2.5-7.09,2.5s-5.34-.65-7.08-2.5-2.38-4.66-2.38-7.45.63-5.63,2.38-7.46,4.43-2.5,7.08-2.5,5.34.66,7.09,2.5S501.72,284.36,501.72,287.16Z" transform="translate(-296.47 -258.01)"/><path id="path-7" data-name="path" class="cls-1" d="M523.58,287.16v1.54H512v-3.08h7.7a5.55,5.55,0,0,0-1.31-2.94,6.77,6.77,0,0,0-8.5,0,7.72,7.72,0,0,0,0,8.95,6.77,6.77,0,0,0,8.5,0c.14-.16.27-.33.41-.5h4.29a8.15,8.15,0,0,1-1.87,3.48c-1.74,1.83-4.43,2.5-7.08,2.5s-5.34-.65-7.08-2.5-2.38-4.66-2.38-7.45.62-5.63,2.38-7.46,4.42-2.5,7.08-2.5,5.34.66,7.08,2.5S523.58,284.36,523.58,287.16Z" transform="translate(-296.47 -258.01)"/><rect id="rect" class="cls-1" x="230.02" y="12.78" width="4.35" height="26.31"/><path id="polygon" class="cls-1" d="M538.28,286.56l7.14,10.55H540l-7.14-10.55,7.14-8.48h5.39Z" transform="translate(-296.47 -258.01)"/><path id="path-8" data-name="path" class="cls-1" d="M367.41,262.44c-.76-.37-1.08.34-1.53.7a4,4,0,0,0-.41.41,5.1,5.1,0,0,1-4.1,1.87,8,8,0,0,0-6.46,2.53,5.83,5.83,0,0,0-3.72-4.62,6.41,6.41,0,0,1-2.86-1.95,8,8,0,0,1-.91-2.31c-.16-.48-.32-1-.87-1s-.83.4-1.07.82a11,11,0,0,0-1.26,5.5,11.86,11.86,0,0,0,5.49,10.13.76.76,0,0,1,.39,1c-.25.83-.54,1.65-.8,2.48-.16.54-.4.66-1,.42a16.29,16.29,0,0,1-5.18-3.52c-2.56-2.47-4.88-5.21-7.76-7.34-.68-.5-1.36-1-2.06-1.41-2.94-2.86.39-5.21,1.16-5.49s.28-1.29-2.33-1.27-5,.88-8,2a9.63,9.63,0,0,1-1.39.41,28.35,28.35,0,0,0-8.61-.3,18.51,18.51,0,0,0-13.44,7.83c-4,5.46-4.91,11.67-3.76,18.14a27.73,27.73,0,0,0,10,16.89,26.8,26.8,0,0,0,19.23,6.39c4.43-.25,9.36-.85,14.92-5.55a14.22,14.22,0,0,0,5.32,1.18,17.24,17.24,0,0,0,5.09-.38c2.2-.47,2.05-2.5,1.25-2.87-6.43-3-5-1.78-6.3-2.77,3.27-3.87,8.2-7.89,10.12-20.92a11.14,11.14,0,0,0,0-2.52c0-.51.11-.71.69-.77a12.36,12.36,0,0,0,4.62-1.42c4.17-2.27,5.85-6,6.25-10.5A1.58,1.58,0,0,0,367.41,262.44Zm-36.34,40.38c-6.24-4.91-9.27-6.52-10.52-6.45s-1,1.4-.7,2.28a8.28,8.28,0,0,0,1.11,2.2,1.15,1.15,0,0,1-.34,1.81c-2,1.24-5.5-.42-5.67-.5a26.13,26.13,0,0,1-9.86-9.88,30.33,30.33,0,0,1-3.88-13.39c0-1.15.29-1.56,1.43-1.77a14,14,0,0,1,4.57-.12,28.56,28.56,0,0,1,16.33,8.29,54.59,54.59,0,0,1,6.58,8.64,41.41,41.41,0,0,0,7.41,8.7,23.14,23.14,0,0,0,2.66,2C337.8,304.92,333.8,305,331.07,302.82Zm3-19.24a.92.92,0,0,1,.92-.92,1.07,1.07,0,0,1,.32.06.91.91,0,0,1,.33.22.9.9,0,0,1,.26.64.92.92,0,0,1-.92.92A.9.9,0,0,1,334.06,283.58Zm9.29,4.77a5.49,5.49,0,0,1-1.77.47,3.68,3.68,0,0,1-2.38-.75,3.59,3.59,0,0,1-1.65-2.27,5.1,5.1,0,0,1,.05-1.75,2,2,0,0,0-.72-2.18,3.11,3.11,0,0,0-2.05-.59,1.74,1.74,0,0,1-.76-.23.75.75,0,0,1-.34-1.07,3.55,3.55,0,0,1,.57-.63,3.94,3.94,0,0,1,3.43,0,10.08,10.08,0,0,1,3,2.33,18.62,18.62,0,0,1,2,2.74,10.9,10.9,0,0,1,1.33,2.53C344.29,287.58,344,288.06,343.35,288.35Z" transform="translate(-296.47 -258.01)"/></svg>