<svg id="图层_1" data-name="图层 1" xmlns="http://www.w3.org/2000/svg" viewBox="0 0 171.84 31.81"><defs><style>.cls-1{fill:#4d6bfe;}</style></defs><path id="path" class="cls-1" d="M410.37,323.27h-2.49v-3.85h2.49a5.55,5.55,0,0,0,4.09-1.45,7.48,7.48,0,0,0,0-8.66,6.49,6.49,0,0,0-8.18,0,6.27,6.27,0,0,0-1.38,4.33v15.8h-4.36V304h4.36v1.62h.79l.26-.27a6.52,6.52,0,0,1,4.4-1.35c2.57,0,5.14.64,6.82,2.41s2.28,4.5,2.28,7.21-.61,5.43-2.28,7.22S412.92,323.27,410.37,323.27Z" transform="translate(-335.03 -297.64)"/><path id="path-2" data-name="path" class="cls-1" d="M344.11,304.71h2.48v3.85h-2.48A5.53,5.53,0,0,0,340,310a6.34,6.34,0,0,0-1.38,4.34,6.24,6.24,0,0,0,1.38,4.33,6.53,6.53,0,0,0,8.18,0,6.33,6.33,0,0,0,1.38-4.33V298.52h4.35V324h-4.35v-1.62h-.8l-.26.27a6.57,6.57,0,0,1-4.4,1.35,9.23,9.23,0,0,1-6.82-2.42c-1.68-1.77-2.27-4.5-2.27-7.21s.6-5.42,2.27-7.21S341.56,304.71,344.11,304.71Z" transform="translate(-335.03 -297.64)"/><path id="path-3" data-name="path" class="cls-1" d="M375.77,314v1.55H364.18v-3.08h7.69a5.47,5.47,0,0,0-1.31-2.94,6.77,6.77,0,0,0-8.5,0,7.76,7.76,0,0,0,0,9,6.77,6.77,0,0,0,8.5,0,6.4,6.4,0,0,0,.41-.5h4.29a8,8,0,0,1-1.87,3.48c-1.74,1.83-4.42,2.5-7.08,2.5s-5.34-.66-7.08-2.5-2.38-4.66-2.38-7.46.62-5.62,2.38-7.45,4.43-2.5,7.08-2.5,5.34.65,7.08,2.5S375.77,311.2,375.77,314Z" transform="translate(-335.03 -297.64)"/><path id="path-4" data-name="path" class="cls-1" d="M397.63,314v1.55H386v-3.08h7.69a5.46,5.46,0,0,0-1.3-2.94,6.79,6.79,0,0,0-8.51,0,7.76,7.76,0,0,0,0,9,6.79,6.79,0,0,0,8.51,0c.14-.16.27-.33.4-.5h4.3a8.15,8.15,0,0,1-1.87,3.48c-1.75,1.83-4.43,2.5-7.09,2.5s-5.34-.66-7.08-2.5-2.38-4.66-2.38-7.46.63-5.62,2.38-7.45,4.43-2.5,7.08-2.5,5.34.65,7.09,2.5S397.63,311.2,397.63,314Z" transform="translate(-335.03 -297.64)"/><path id="path-5" data-name="path" class="cls-1" d="M431.86,324c2.65,0,5.34-.39,7.08-1.48a5.26,5.26,0,0,0,0-8.8c-1.74-1.08-4.43-1.48-7.08-1.48a6.09,6.09,0,0,1-2.92-.57,1.88,1.88,0,0,1-1-1.7,1.86,1.86,0,0,1,1-1.7,6.42,6.42,0,0,1,3-.57,6.55,6.55,0,0,1,3,.57,1.87,1.87,0,0,1,1,1.7h4.43a5.1,5.1,0,0,0-2.15-4.4,11.83,11.83,0,0,0-6.41-1.48c-2.41,0-4.83.38-6.42,1.48a5.59,5.59,0,0,0,0,8.8,11.89,11.89,0,0,0,6.42,1.48,8.49,8.49,0,0,1,3.45.57,1.85,1.85,0,0,1,0,3.4,7.94,7.94,0,0,1-3.34.57,7.84,7.84,0,0,1-3.33-.57,1.84,1.84,0,0,1-1.12-1.7h-5.11a4.92,4.92,0,0,0,2.38,4.4A14.18,14.18,0,0,0,431.86,324Z" transform="translate(-335.03 -297.64)"/><path id="path-6" data-name="path" class="cls-1" d="M463.17,314v1.55H451.58v-3.08h7.69a5.47,5.47,0,0,0-1.31-2.94,6.77,6.77,0,0,0-8.5,0,7.76,7.76,0,0,0,0,9,6.77,6.77,0,0,0,8.5,0,6.4,6.4,0,0,0,.41-.5h4.29a8,8,0,0,1-1.87,3.48c-1.74,1.83-4.42,2.5-7.08,2.5s-5.34-.66-7.08-2.5-2.38-4.66-2.38-7.46.62-5.62,2.38-7.45,4.43-2.5,7.08-2.5,5.34.65,7.08,2.5S463.17,311.2,463.17,314Z" transform="translate(-335.03 -297.64)"/><path id="path-7" data-name="path" class="cls-1" d="M485,314v1.55h-11.6v-3.08h7.69a5.46,5.46,0,0,0-1.3-2.94,6.79,6.79,0,0,0-8.51,0,7.76,7.76,0,0,0,0,9,6.79,6.79,0,0,0,8.51,0c.14-.16.27-.33.4-.5h4.3a8.15,8.15,0,0,1-1.87,3.48c-1.75,1.83-4.43,2.5-7.09,2.5s-5.34-.66-7.08-2.5-2.38-4.66-2.38-7.46.63-5.62,2.38-7.45,4.43-2.5,7.08-2.5,5.34.65,7.09,2.5S485,311.2,485,314Z" transform="translate(-335.03 -297.64)"/><rect id="rect" class="cls-1" x="152.92" width="4.35" height="26.31"/><path id="polygon" class="cls-1" d="M499.73,313.4,506.86,324h-5.38l-7.14-10.55,7.14-8.48h5.38Z" transform="translate(-335.03 -297.64)"/></svg>