<svg xmlns="http://www.w3.org/2000/svg" viewBox="0 0 128 128" width="128" height="128"><g fill="none"><path fill="#01CEB2" d="M0 19.2C0 8.596 8.596 0 19.2 0H64c35.346 0 64 28.654 64 64v44.8c0 10.604-8.596 19.2-19.2 19.2H64C28.654 128 0 99.346 0 64V19.2Z"/><path fill="#fff" fill-rule="evenodd" d="M19.2 60.8c0-14.138 11.462-25.6 25.6-25.6h39.225c13.683 0 24.775 11.092 24.775 24.775a24.775 24.775 0 01-11.507 20.922l-28.95 18.359c-1.42.901-3.276-.12-3.276-1.802v-5.421a5.633 5.633 0 00-5.633-5.633H44.8c-14.139 0-25.6-11.462-25.6-25.6Zm32 0a8.533 8.533 0 11-17.067 0 8.533 8.533 0 0117.067 0Zm34.133 8.533a8.533 8.533 0 100-17.066 8.533 8.533 0 000 17.066Z" clip-rule="evenodd"/></g></svg>
